<?xml version="1.0" standalone="no"?>
<!DOCTYPE svg PUBLIC "-//W3C//DTD SVG 20010904//EN"
 "http://www.w3.org/TR/2001/REC-SVG-20010904/DTD/svg10.dtd">
<svg version="1.0" xmlns="http://www.w3.org/2000/svg"
 width="400.000000pt" height="400.000000pt" viewBox="0 0 400.000000 400.000000"
 preserveAspectRatio="xMidYMid meet">
<metadata>
Created by potrace 1.11, written by Peter Selinger 2001-2013
</metadata>
<g transform="translate(0.000000,400.000000) scale(0.100000,-0.100000)"
fill="#000000" stroke="none">
<path d="M2561 3973 c-23 -16 -24 -28 -6 -110 9 -41 -9 -75 -98 -179 -26 -31
-92 -69 -133 -79 -88 -20 -181 -49 -200 -62 -15 -9 -24 -11 -24 -4 0 6 4 11 9
11 16 0 111 92 127 122 24 47 26 116 3 139 -38 38 -56 22 -66 -61 -3 -25 -8
-50 -12 -56 -16 -28 -62 -73 -123 -122 -73 -58 -101 -106 -68 -117 22 -7 54 8
70 33 11 16 11 16 6 0 -5 -17 17 -48 34 -48 5 0 16 7 24 16 14 14 17 13 28
-11 10 -23 17 -26 57 -24 43 2 56 0 106 -21 11 -5 43 -16 70 -26 28 -10 58
-25 69 -33 10 -9 20 -15 22 -13 9 6 60 -28 84 -54 14 -16 74 -103 134 -193
l109 -163 0 -254 c0 -140 -2 -256 -4 -259 -6 -6 -2 -181 7 -255 4 -36 8 -90 9
-120 2 -30 13 -102 24 -160 12 -58 23 -115 25 -126 2 -12 9 -31 15 -43 7 -11
9 -21 5 -21 -3 0 -2 -6 4 -12 6 -7 11 -16 11 -21 1 -16 14 -63 20 -72 3 -5 6
-14 7 -20 5 -26 35 -98 48 -117 15 -21 13 -22 -27 -41 -89 -40 -82 -42 -109
26 -27 66 -46 123 -53 157 -3 11 -7 30 -11 43 -3 12 -7 33 -10 47 -3 14 -11
50 -19 80 -17 70 -33 167 -41 250 -10 101 -12 552 -3 577 4 12 9 82 11 156 2
134 2 135 -31 201 -18 36 -36 66 -42 66 -5 0 -9 6 -9 13 0 20 -49 59 -68 55
-32 -6 -20 -221 15 -260 21 -24 53 -6 53 29 0 20 3 23 13 14 14 -11 16 -130 3
-243 -3 -32 -9 -84 -12 -115 -3 -32 -7 -60 -9 -64 -2 -3 -7 -39 -10 -80 -10
-116 -12 -131 -20 -187 -4 -29 -11 -55 -16 -58 -4 -2 -6 -11 -3 -19 3 -7 0
-24 -7 -37 -7 -13 -12 -33 -10 -45 1 -13 -1 -28 -6 -35 -7 -13 -9 -18 -11 -50
-1 -10 -7 -18 -13 -18 -5 0 -7 4 -4 10 10 17 -12 44 -47 56 -20 7 -31 17 -29
25 2 8 5 25 7 39 1 14 3 28 3 32 1 3 14 1 30 -5 35 -13 61 -4 61 23 0 14 -13
27 -45 42 -36 18 -45 27 -45 47 0 176 -13 392 -25 433 -7 26 -11 48 -8 48 3 0
1 6 -5 13 -10 12 -33 88 -29 97 1 3 -8 19 -21 37 -12 17 -22 36 -22 43 0 16
-78 130 -111 162 -54 52 -141 84 -184 67 -11 -4 -32 -10 -46 -13 -15 -3 -41
-19 -58 -35 -59 -55 -27 -93 36 -44 88 68 197 26 284 -110 51 -79 64 -106 104
-217 25 -68 28 -90 31 -230 5 -211 5 -252 0 -257 -5 -5 -34 -5 -76 1 -19 2
-55 7 -80 11 -25 3 -61 8 -80 10 -43 6 -155 17 -192 19 l-27 1 1 95 c2 240
-19 564 -43 652 -21 79 -109 143 -184 133 -79 -10 -158 -66 -255 -184 -49 -59
-124 -187 -138 -236 -3 -11 -6 -128 -6 -260 l-1 -240 -25 -3 c-14 -2 -33 -11
-42 -19 -26 -23 -4 -45 40 -41 l35 3 3 -53 c1 -29 0 -51 -3 -48 -3 3 -13 1
-22 -4 -9 -4 -36 -11 -59 -15 -36 -5 -42 -3 -44 12 0 10 -2 23 -3 28 -1 6 -5
37 -9 70 -4 32 -10 68 -12 80 -2 11 -6 45 -9 75 -3 30 -8 78 -11 105 -4 28 -8
75 -10 105 -1 30 -5 66 -8 80 -2 14 -7 48 -11 75 -3 28 -8 64 -10 80 -11 70
-13 115 -5 120 5 3 7 12 4 19 -3 7 2 19 11 26 13 11 15 9 15 -13 0 -17 7 -28
21 -32 29 -10 37 2 45 65 3 30 10 74 14 97 9 51 3 90 -15 97 -12 4 -33 -12
-61 -46 -22 -28 -84 -140 -84 -153 0 -8 -4 -16 -9 -19 -12 -8 -22 -66 -14 -80
4 -6 9 -20 10 -31 1 -11 9 -54 16 -95 9 -51 13 -148 11 -305 -3 -249 -4 -261
-34 -380 -11 -44 -23 -93 -26 -110 -8 -40 -9 -43 -24 -95 -7 -25 -14 -49 -16
-55 -8 -36 -70 -201 -76 -203 -4 -2 -5 -9 -2 -17 3 -7 1 -16 -5 -20 -6 -3 -11
-14 -11 -23 0 -9 -6 -29 -14 -44 -19 -36 -58 -139 -60 -158 -1 -9 -5 -20 -8
-25 -6 -10 -11 -50 -9 -72 1 -16 27 -17 36 -3 4 6 8 25 11 43 7 58 126 382
150 409 10 10 13 18 9 18 -5 0 1 10 12 23 11 12 41 51 66 87 58 82 111 138
159 170 21 14 38 29 38 33 0 5 5 5 10 2 6 -3 10 -1 10 4 0 6 11 11 24 11 14 0
27 4 30 8 2 4 19 9 37 10 l32 3 -17 -26 c-17 -25 -83 -191 -92 -230 -6 -25
-15 -90 -18 -130 -3 -35 13 -95 26 -95 4 0 8 -7 8 -16 0 -17 164 -184 181
-184 6 0 32 -15 58 -34 54 -39 153 -86 235 -112 32 -10 61 -25 64 -33 5 -14
-21 -109 -41 -146 -5 -11 -14 -27 -18 -35 -15 -28 -63 -135 -75 -170 -10 -27
-10 -36 -1 -42 12 -8 56 36 57 57 0 6 9 20 19 32 17 20 26 22 73 19 72 -6 97
1 91 25 -5 18 12 49 27 49 4 0 12 -18 19 -40 12 -41 22 -46 69 -34 15 5 22 14
22 33 l1 26 22 -30 c26 -36 27 -42 10 -78 -15 -29 -46 -46 -102 -53 -42 -5
-45 -8 -37 -29 5 -14 17 -16 61 -13 l55 3 0 -35 c0 -68 -101 -157 -185 -165
-25 -2 -47 0 -50 5 -3 5 -12 7 -20 3 -8 -3 -15 0 -15 7 0 6 -4 8 -10 5 -6 -3
-10 4 -10 18 0 70 -61 190 -88 173 -16 -10 -15 -31 5 -69 9 -18 18 -66 21
-113 3 -67 1 -88 -17 -126 -27 -60 -53 -79 -151 -112 -124 -41 -198 -50 -242
-29 -13 6 -48 21 -78 34 -92 40 -138 78 -154 129 -20 66 -14 175 13 235 20 46
21 51 6 60 -9 6 -42 27 -73 47 -31 21 -61 38 -67 38 -11 0 -44 40 -86 101 -15
21 -39 77 -54 124 -27 85 -31 91 -50 77 -18 -13 -19 -41 -9 -197 10 -154 10
-441 1 -465 -6 -14 -9 -29 -8 -33 4 -20 -46 -71 -87 -88 -49 -21 -120 -21
-177 1 l-29 11 42 40 c50 48 100 150 117 240 26 133 29 276 11 569 -2 47 23
133 52 178 9 14 16 28 14 29 -2 2 19 49 46 106 45 93 87 201 96 245 1 9 6 24
9 32 6 14 20 70 33 130 3 13 11 38 18 55 65 149 69 530 8 837 -15 76 -7 108
52 208 31 52 56 98 56 102 0 4 5 8 10 8 9 0 90 55 284 192 45 32 90 62 101 67
11 5 32 23 47 39 15 16 41 32 58 36 42 8 61 27 48 50 -9 16 -19 17 -92 10 -44
-4 -110 -7 -146 -7 -36 1 -85 2 -110 3 -44 1 -94 -4 -136 -14 -47 -10 -237
-113 -277 -150 -30 -28 -45 -72 -29 -88 15 -15 52 -3 87 29 57 53 170 114 235
128 8 2 29 9 45 15 17 6 48 13 71 15 22 2 45 5 50 6 5 1 16 1 24 0 25 -2 -2
-17 -78 -41 -49 -16 -83 -34 -107 -58 -19 -20 -35 -38 -35 -42 0 -4 -16 -27
-35 -51 -19 -24 -35 -50 -35 -56 0 -7 -8 -21 -19 -32 -10 -10 -31 -45 -47 -77
-16 -32 -46 -84 -66 -115 -40 -59 -48 -102 -28 -153 5 -15 12 -41 14 -59 26
-176 31 -246 30 -397 -1 -193 -6 -239 -33 -329 -6 -19 -8 -38 -5 -42 3 -5 2
-15 -3 -21 -4 -7 -8 -17 -9 -23 -1 -5 -12 -48 -23 -95 -12 -47 -23 -89 -24
-95 -1 -5 -6 -16 -10 -22 -5 -7 -6 -13 -2 -13 3 0 -1 -13 -10 -30 -9 -16 -13
-30 -10 -30 3 0 -2 -11 -11 -25 -9 -14 -13 -25 -9 -25 5 0 0 -9 -10 -20 -10
-11 -15 -20 -11 -20 4 0 -1 -12 -12 -27 -11 -16 -23 -39 -27 -53 -7 -22 -47
-107 -76 -163 -29 -55 -41 -112 -33 -166 17 -124 25 -336 14 -388 -4 -21 -11
-65 -14 -98 -15 -146 -83 -274 -155 -290 -14 -3 -32 -14 -38 -23 -8 -15 -5
-24 18 -50 16 -18 31 -32 34 -32 3 0 17 -8 32 -17 14 -9 35 -18 47 -20 48 -7
142 -10 151 -5 6 4 21 8 34 10 13 2 36 16 52 33 15 16 32 29 38 29 6 0 11 6
11 14 0 15 47 53 65 52 6 -1 26 -13 45 -27 43 -32 84 -46 130 -43 37 2 90 -13
90 -26 0 -4 37 -22 82 -39 45 -18 91 -39 103 -47 l22 -14 -28 -80 -28 -80 25
0 c21 0 29 10 53 62 16 35 31 71 35 80 9 28 43 21 82 -16 58 -54 200 -91 341
-88 65 1 211 31 251 51 27 13 97 45 102 46 3 0 16 8 30 17 14 9 41 19 60 21
19 2 49 10 65 17 17 6 41 14 54 16 13 3 46 16 73 30 28 14 56 23 63 20 7 -2
15 -19 19 -38 3 -18 21 -73 39 -123 30 -80 37 -90 60 -93 15 -2 27 0 27 5 0
11 -49 144 -62 168 -6 11 -13 29 -15 40 -2 11 -6 34 -9 51 -7 36 21 72 73 93
39 16 66 8 83 -24 20 -38 60 -59 107 -58 23 1 47 4 52 8 6 3 27 -9 46 -28 42
-41 124 -69 175 -61 36 6 110 43 110 55 0 4 9 9 20 12 28 7 25 33 -7 54 -27
17 -49 39 -83 80 -16 19 -53 94 -63 128 -17 56 -36 205 -27 210 3 2 5 17 4 34
-1 16 2 65 8 108 5 43 11 97 12 120 2 23 7 46 10 51 11 18 -6 42 -29 42 -20 0
-24 -7 -30 -42 -4 -24 -9 -56 -12 -73 -16 -97 -20 -151 -18 -240 2 -55 5 -116
9 -134 7 -46 44 -157 62 -193 8 -15 12 -28 9 -28 -4 0 10 -20 29 -44 41 -50
42 -51 19 -61 -37 -15 -90 -15 -132 -1 -99 36 -127 115 -124 351 1 103 16 280
23 280 6 0 7 154 0 165 -15 25 -37 4 -35 -35 1 -20 -2 -38 -6 -41 -4 -2 -6
-13 -4 -24 2 -10 -3 -24 -11 -31 -8 -6 -14 -20 -14 -30 0 -9 -15 -33 -32 -52
-40 -41 -198 -157 -214 -157 -20 0 -37 -28 -29 -47 18 -40 26 -82 29 -140 2
-35 -3 -66 -16 -94 -17 -40 -25 -49 -80 -92 -23 -19 -95 -59 -113 -63 -5 -2
-30 -9 -55 -17 -112 -33 -315 26 -351 103 -35 76 -36 74 38 108 50 22 78 43
105 77 35 44 37 50 34 108 -2 51 1 66 17 84 16 19 19 32 14 76 -6 64 -18 85
-61 115 -36 24 -44 26 -65 13 -12 -8 -12 -12 -2 -24 7 -10 8 -18 2 -21 -5 -4
-22 17 -38 46 -19 36 -35 54 -50 56 -13 2 -24 0 -24 -5 -1 -4 -3 -21 -4 -38
-2 -16 -3 -33 -4 -37 -2 -17 -31 -7 -31 10 0 10 -3 22 -7 26 -20 20 -18 165 2
168 6 0 27 12 47 24 21 13 40 24 44 24 25 0 177 94 231 142 82 76 149 152 154
178 4 17 5 56 3 87 -15 247 -21 271 -81 331 -24 24 -34 38 -24 32 11 -6 24 -9
28 -8 13 2 67 -14 81 -25 6 -5 12 -6 12 -2 0 5 8 1 18 -7 9 -8 29 -18 45 -22
15 -3 27 -11 27 -16 0 -6 6 -10 13 -10 19 0 104 -98 136 -156 15 -27 40 -71
56 -99 40 -71 42 -74 69 -137 38 -86 42 -107 20 -114 -11 -3 -28 -10 -39 -15
-23 -10 -221 -77 -233 -79 -4 0 -23 -5 -42 -11 -59 -18 -104 -29 -140 -34 -53
-9 -60 -13 -60 -33 0 -12 7 -17 25 -17 14 1 28 5 32 8 3 4 18 7 32 7 14 0 45
7 68 15 22 8 52 16 66 19 33 6 245 74 260 83 7 4 17 8 22 9 6 1 17 5 26 9 17
6 30 -18 49 -90 4 -16 11 -39 15 -50 5 -11 5 -17 1 -13 -4 3 -22 2 -39 -3 -72
-19 -157 -24 -320 -19 -71 2 -92 -6 -82 -32 5 -13 29 -15 163 -13 86 2 168 6
182 10 14 3 41 8 60 10 75 8 137 16 171 21 20 2 55 6 78 9 23 2 46 7 51 10 4
3 30 8 57 11 142 16 248 44 303 80 46 31 63 60 48 86 -12 24 -23 23 -61 -6
-39 -29 -126 -73 -158 -80 -54 -12 -97 -24 -107 -30 -6 -3 -32 -8 -59 -11
l-48 -6 -17 71 c-9 39 -24 85 -32 102 -9 17 -13 34 -10 39 5 9 69 39 89 43 18
3 130 61 133 69 2 4 8 7 13 7 6 0 15 5 22 10 7 6 26 21 43 33 201 141 288 241
247 282 -18 19 -48 2 -63 -35 -12 -29 -125 -139 -196 -190 -114 -82 -287 -175
-310 -166 -8 3 -14 14 -14 24 0 10 -5 23 -12 30 -11 11 -24 42 -54 132 -9 25
-18 52 -22 60 -3 8 -6 24 -7 35 -1 11 -5 27 -8 35 -21 55 -41 202 -53 400 -7
111 -8 118 -4 532 l3 267 -26 35 c-15 19 -27 39 -27 45 0 6 -3 11 -7 11 -5 0
-19 16 -32 35 -13 19 -34 47 -47 62 -13 16 -24 31 -24 34 0 3 -12 19 -26 35
-14 16 -32 43 -41 59 -20 39 -100 115 -134 128 -8 3 21 4 63 4 43 -1 78 -5 78
-9 0 -5 6 -8 13 -8 20 0 89 -36 115 -60 34 -32 50 -61 56 -105 10 -61 15 -73
38 -81 31 -10 47 19 43 75 -4 47 -24 103 -47 132 -21 25 -101 75 -143 90 -55
18 -57 18 -169 20 -81 1 -102 -2 -112 -15 -12 -17 -49 -22 -58 -8 -2 4 16 14
42 21 97 27 148 43 167 51 74 31 168 43 224 28 37 -10 102 -64 100 -82 -7 -57
28 -91 61 -61 23 21 19 92 -7 136 -37 63 -144 110 -213 94 -14 -3 -35 -8 -47
-11 -12 -2 -69 -24 -126 -48 -93 -39 -148 -58 -182 -62 -5 0 -21 -4 -35 -7
-40 -11 -160 -16 -165 -8 -3 6 43 26 85 36 3 1 21 5 40 9 19 5 41 12 50 16 8
4 38 18 65 31 87 41 189 148 207 217 29 107 -15 215 -71 175z m-760 -965 c35
-23 56 -70 64 -143 4 -33 9 -71 11 -85 3 -14 7 -147 10 -297 l6 -272 -84 1
c-110 0 -339 -15 -407 -27 -16 -3 -33 0 -36 5 -7 11 -10 267 -5 380 2 36 8 76
13 90 6 14 11 27 11 30 2 11 51 86 60 92 6 4 7 8 3 8 -13 0 50 77 112 139 92
90 182 120 242 79z m84 -888 c-2 -40 -9 -45 -68 -46 -67 0 -175 -14 -204 -25
-13 -5 -23 -6 -23 -3 0 4 -6 2 -13 -4 -21 -18 -66 -22 -79 -8 -10 11 -23 11
-64 1 l-52 -12 -6 38 c-3 20 -9 44 -12 52 -7 18 39 31 146 42 35 3 48 0 63
-15 54 -58 125 -73 189 -40 24 12 56 33 71 46 35 29 54 20 52 -26z m112 -24
c10 -10 29 -23 43 -28 15 -6 20 -12 12 -15 -7 -3 -20 -2 -30 3 -22 9 -30 11
-68 12 -29 2 -31 4 -28 35 7 58 13 65 35 37 10 -14 27 -33 36 -44z m330 15
c12 -1 29 -8 37 -17 17 -16 21 -70 7 -92 -7 -12 -48 -11 -70 2 -5 3 -31 8 -58
10 -131 11 -184 29 -126 42 50 10 88 27 103 45 11 13 25 17 50 14 19 -2 45 -4
57 -4z m672 -778 c10 -21 23 -61 29 -88 6 -28 14 -57 17 -66 5 -14 -4 -18 -57
-24 -35 -3 -70 -8 -79 -11 -11 -3 -15 3 -13 25 2 26 -22 111 -39 137 -6 11 37
35 72 41 7 1 18 6 24 12 18 18 26 13 46 -26z"/>
<path d="M1692 3964 c-29 -8 -70 -25 -92 -39 -22 -14 -44 -25 -50 -25 -5 0
-10 -4 -10 -8 0 -4 -13 -15 -29 -25 -29 -17 -63 -74 -66 -112 -5 -63 78 -133
178 -150 58 -11 139 -57 166 -96 26 -38 60 -57 62 -36 9 74 -15 100 -160 169
-148 71 -169 88 -152 125 21 46 86 85 165 99 16 3 32 6 35 8 3 2 15 0 26 -4
26 -9 65 9 65 30 0 26 -36 67 -63 72 -14 3 -47 -1 -75 -8z"/>
<path d="M2133 3936 c-18 -6 -42 -19 -53 -28 -11 -10 -24 -18 -28 -18 -24 0
-128 -138 -136 -180 -1 -3 -4 -9 -7 -15 -4 -5 -10 -30 -14 -55 -4 -25 -9 -54
-12 -65 -2 -11 -5 -24 -6 -30 -2 -5 -5 -14 -8 -20 -3 -5 -4 -16 -3 -22 1 -7 2
-20 3 -28 0 -8 8 -15 17 -15 16 0 44 56 48 97 2 13 6 26 9 30 4 3 7 15 7 25 0
10 5 18 11 18 6 0 9 6 6 13 -7 19 29 81 75 130 61 63 125 91 190 84 27 -4 57
-12 64 -18 12 -10 18 -8 29 7 8 10 15 26 15 35 0 22 -24 52 -46 57 -42 9 -132
8 -161 -2z"/>
<path d="M1016 3764 c-20 -20 -20 -27 2 -54 14 -17 28 -23 53 -21 64 4 124 3
169 -4 25 -4 53 -8 63 -8 9 -1 17 -5 17 -10 0 -4 4 -5 10 -2 5 3 31 -1 56 -10
38 -13 49 -13 55 -3 5 7 9 16 9 19 0 6 -67 42 -80 44 -3 0 -11 4 -17 8 -7 5
-13 6 -13 2 0 -3 -16 1 -36 10 -44 18 -183 45 -234 45 -22 0 -45 -7 -54 -16z"/>
<path d="M1009 3626 c-76 -24 -99 -39 -94 -64 2 -9 4 -20 4 -24 1 -11 55 -10
86 2 14 5 36 12 48 15 12 2 41 9 63 14 51 13 138 15 223 7 57 -5 212 -61 248
-88 6 -5 27 -11 45 -13 18 -2 56 -6 84 -9 36 -5 54 -3 62 7 22 27 -6 40 -113
54 -22 3 -51 13 -65 22 -30 21 -96 52 -119 56 -9 2 -16 4 -16 5 0 1 -7 3 -15
5 -93 22 -143 28 -250 29 -102 2 -137 -2 -191 -18z"/>
<path d="M1630 3293 c-101 -40 -195 -116 -188 -151 5 -27 30 -20 70 19 20 20
46 40 57 44 12 3 21 11 21 17 0 6 3 8 7 5 3 -4 15 0 25 9 13 12 37 17 88 17
68 0 80 6 62 33 -9 14 -47 34 -64 34 -7 0 -42 -12 -78 -27z"/>
<path d="M2166 3251 c-15 -16 -15 -19 2 -34 10 -10 21 -15 24 -12 3 3 11 -1
18 -10 7 -8 18 -15 24 -16 6 0 36 -29 66 -64 52 -60 90 -81 90 -51 0 14 -79
112 -122 152 -13 12 -37 28 -54 37 -30 15 -33 15 -48 -2z"/>
<path d="M1990 3227 c-19 -7 -44 -27 -57 -46 -21 -31 -22 -36 -8 -50 13 -13
17 -13 37 5 81 70 161 59 254 -35 52 -52 91 -106 123 -168 14 -29 28 -43 41
-43 11 0 20 3 20 7 0 9 -63 147 -70 153 -3 3 -13 17 -23 33 -10 15 -21 27 -26
27 -5 0 -31 20 -57 45 -85 78 -155 100 -234 72z"/>
<path d="M1696 3212 c-4 -3 -14 -7 -24 -8 -30 -5 -136 -64 -172 -97 -19 -18
-48 -50 -65 -72 -16 -22 -43 -55 -60 -73 -38 -43 -48 -60 -40 -72 10 -17 32
-11 48 13 8 12 23 31 33 42 11 11 39 44 62 73 24 28 55 55 68 58 13 3 24 9 24
13 0 3 21 19 46 35 36 23 60 30 105 31 39 2 63 -2 70 -11 17 -21 48 -18 44 4
-2 9 -4 20 -4 24 -3 25 -117 59 -135 40z"/>
<path d="M2695 2961 c-3 -5 -1 -12 5 -16 5 -3 10 1 10 9 0 18 -6 21 -15 7z"/>
<path d="M1357 1123 c-13 -12 -7 -44 9 -50 23 -9 48 25 33 44 -12 14 -32 17
-42 6z"/>
<path d="M1527 1105 c-7 -16 1 -45 12 -45 17 1 33 19 29 36 -4 24 -33 30 -41
9z"/>
<path d="M1212 1076 c-9 -20 -7 -28 9 -45 22 -23 51 -16 63 15 8 21 8 20 -10
38 -23 23 -49 20 -62 -8z"/>
<path d="M2272 1068 c-21 -21 -11 -78 14 -78 14 0 54 38 54 51 0 12 -30 39
-44 39 -6 0 -17 -5 -24 -12z"/>
<path d="M2371 1046 c-9 -11 -9 -19 1 -35 14 -23 29 -26 45 -10 12 12 6 39
-11 51 -16 11 -22 10 -35 -6z"/>
<path d="M3150 1049 c0 -5 5 -7 10 -4 6 3 10 8 10 11 0 2 -4 4 -10 4 -5 0 -10
-5 -10 -11z"/>
<path d="M1332 1037 c-14 -17 2 -42 22 -34 20 8 20 21 2 36 -10 8 -16 8 -24
-2z"/>
<path d="M2453 1004 c-3 -8 1 -23 10 -32 15 -14 17 -14 23 1 8 21 -1 47 -16
47 -6 0 -13 -7 -17 -16z"/>
<path d="M2324 986 c-8 -21 3 -36 27 -36 15 0 20 6 17 22 -4 27 -35 37 -44 14z"/>
<path d="M1413 48 c-20 -33 -13 -48 22 -48 39 0 39 0 23 35 -12 27 -32 33 -45
13z"/>
<path d="M2502 48 c-7 -7 -12 -20 -12 -30 0 -14 8 -18 35 -18 39 0 39 -1 25
34 -10 28 -29 33 -48 14z"/>
</g>
</svg>
